<svg width="24" xmlns="http://www.w3.org/2000/svg" height="24" id="screenshot-76b82735-f439-8086-8006-424174780e3f" viewBox="0 0 24 24" xmlns:xlink="http://www.w3.org/1999/xlink" fill="none" version="1.1"><g id="shape-76b82735-f439-8086-8006-424174780e3f" width="24" class="lucide lucide-heart-plus-icon lucide-heart-plus" height="24" rx="0" ry="0" style="fill: rgb(0, 0, 0);"><g id="shape-76b82735-f439-8086-8006-424174789acd" style="display: none;"><g class="fills" id="fills-76b82735-f439-8086-8006-424174789acd"><rect width="24" height="24" x="0" stroke-linejoin="round" transform="matrix(1.000000, 0.000000, 0.000000, 1.000000, 0.000000, 0.000000)" style="fill: none;" ry="0" fill="none" stroke-linecap="round" rx="0" y="0"/></g><g fill="none" stroke-linejoin="round" stroke-linecap="round" id="strokes-55c1500b-ffb3-8076-8006-424296d259b3-76b82735-f439-8086-8006-424174789acd" class="strokes"><g class="stroke-shape"><rect rx="0" ry="0" x="0" y="0" transform="matrix(1.000000, 0.000000, 0.000000, 1.000000, 0.000000, 0.000000)" width="24" height="24" style="fill: none; stroke-width: 2; stroke: rgb(232, 61, 78); stroke-opacity: 1;"/></g></g></g><g id="shape-76b82735-f439-8086-8006-42417478dcc9"><g class="fills" id="fills-76b82735-f439-8086-8006-42417478dcc9"><path d="M13.500,19.500L12.000,21.000L5.000,14.000C3.500,12.550,2.000,10.800,2.000,8.500C2.000,5.462,4.462,3.000,7.500,3.000C9.260,3.000,10.500,3.500,12.000,5.000C13.500,3.500,14.740,3.000,16.500,3.000C18.133,3.002,19.680,3.729,20.724,4.985C21.767,6.240,22.199,7.895,21.902,9.500" fill="none" stroke-linejoin="round" stroke-linecap="round" style="fill: none;"/></g><g fill="none" stroke-linejoin="round" stroke-linecap="round" id="strokes-55c1500b-ffb3-8076-8006-424296d34323-76b82735-f439-8086-8006-42417478dcc9" class="strokes"><g class="stroke-shape"><path d="M13.500,19.500L12.000,21.000L5.000,14.000C3.500,12.550,2.000,10.800,2.000,8.500C2.000,5.462,4.462,3.000,7.500,3.000C9.260,3.000,10.500,3.500,12.000,5.000C13.500,3.500,14.740,3.000,16.500,3.000C18.133,3.002,19.680,3.729,20.724,4.985C21.767,6.240,22.199,7.895,21.902,9.500" style="fill: none; stroke-width: 2; stroke: rgb(232, 61, 78); stroke-opacity: 1;"/></g></g></g><g id="shape-76b82735-f439-8086-8006-42417478dcca"><g class="fills" id="fills-76b82735-f439-8086-8006-42417478dcca"><path d="M15.000,15.000L21.000,15.000" fill="none" stroke-linejoin="round" stroke-linecap="round" style="fill: none;"/></g><g fill="none" stroke-linejoin="round" stroke-linecap="round" id="strokes-55c1500b-ffb3-8076-8006-424296d3f8f9-76b82735-f439-8086-8006-42417478dcca" class="strokes"><g class="stroke-shape"><path d="M15.000,15.000L21.000,15.000" style="fill: none; stroke-width: 2; stroke: rgb(232, 61, 78); stroke-opacity: 1;"/></g></g></g><g id="shape-76b82735-f439-8086-8006-42417478dccb"><g class="fills" id="fills-76b82735-f439-8086-8006-42417478dccb"><path d="M18.000,12.000L18.000,18.000" fill="none" stroke-linejoin="round" stroke-linecap="round" style="fill: none;"/></g><g fill="none" stroke-linejoin="round" stroke-linecap="round" id="strokes-55c1500b-ffb3-8076-8006-424296d47b3a-76b82735-f439-8086-8006-42417478dccb" class="strokes"><g class="stroke-shape"><path d="M18.000,12.000L18.000,18.000" style="fill: none; stroke-width: 2; stroke: rgb(232, 61, 78); stroke-opacity: 1;"/></g></g></g></g></svg>