<svg width="24" xmlns="http://www.w3.org/2000/svg" height="24" id="screenshot-76b82735-f439-8086-8006-42417482cbcf" viewBox="0 0 24 24" xmlns:xlink="http://www.w3.org/1999/xlink" fill="none" version="1.1"><g id="shape-76b82735-f439-8086-8006-42417482cbcf" width="24" class="lucide lucide-hourglass-icon lucide-hourglass" height="24" rx="0" ry="0" style="fill: rgb(0, 0, 0);"><g id="shape-76b82735-f439-8086-8006-4241748367c4" style="display: none;"><g class="fills" id="fills-76b82735-f439-8086-8006-4241748367c4"><rect width="24" height="24" x="0" stroke-linejoin="round" transform="matrix(1.000000, 0.000000, 0.000000, 1.000000, 0.000000, 0.000000)" style="fill: none;" ry="0" fill="none" stroke-linecap="round" rx="0" y="0"/></g><g fill="none" stroke-linejoin="round" stroke-linecap="round" id="strokes-19968219-39f7-800a-8006-424256421e6c-76b82735-f439-8086-8006-4241748367c4" class="strokes"><g class="stroke-shape"><rect rx="0" ry="0" x="0" y="0" transform="matrix(1.000000, 0.000000, 0.000000, 1.000000, 0.000000, 0.000000)" width="24" height="24" style="fill: none; stroke-width: 2; stroke: rgb(232, 61, 78); stroke-opacity: 1;"/></g></g></g><g id="shape-76b82735-f439-8086-8006-4241748367c5"><g class="fills" id="fills-76b82735-f439-8086-8006-4241748367c5"><path d="M5.000,22.000L19.000,22.000" fill="none" stroke-linejoin="round" stroke-linecap="round" style="fill: none;"/></g><g fill="none" stroke-linejoin="round" stroke-linecap="round" id="strokes-19968219-39f7-800a-8006-42425643103f-76b82735-f439-8086-8006-4241748367c5" class="strokes"><g class="stroke-shape"><path d="M5.000,22.000L19.000,22.000" style="fill: none; stroke-width: 2; stroke: rgb(232, 61, 78); stroke-opacity: 1;"/></g></g></g><g id="shape-76b82735-f439-8086-8006-42417483af7e"><g class="fills" id="fills-76b82735-f439-8086-8006-42417483af7e"><path d="M5.000,2.000L19.000,2.000" fill="none" stroke-linejoin="round" stroke-linecap="round" style="fill: none;"/></g><g fill="none" stroke-linejoin="round" stroke-linecap="round" id="strokes-19968219-39f7-800a-8006-424256436d99-76b82735-f439-8086-8006-42417483af7e" class="strokes"><g class="stroke-shape"><path d="M5.000,2.000L19.000,2.000" style="fill: none; stroke-width: 2; stroke: rgb(232, 61, 78); stroke-opacity: 1;"/></g></g></g><g id="shape-76b82735-f439-8086-8006-42417483af7f"><g class="fills" id="fills-76b82735-f439-8086-8006-42417483af7f"><path d="M17.000,22.000L17.000,17.828C17.000,17.298,16.789,16.789,16.414,16.414L12.000,12.000L7.586,16.414C7.211,16.789,7.000,17.298,7.000,17.828L7.000,22.000" fill="none" stroke-linejoin="round" stroke-linecap="round" style="fill: none;"/></g><g fill="none" stroke-linejoin="round" stroke-linecap="round" id="strokes-19968219-39f7-800a-8006-42425643e7a7-76b82735-f439-8086-8006-42417483af7f" class="strokes"><g class="stroke-shape"><path d="M17.000,22.000L17.000,17.828C17.000,17.298,16.789,16.789,16.414,16.414L12.000,12.000L7.586,16.414C7.211,16.789,7.000,17.298,7.000,17.828L7.000,22.000" style="fill: none; stroke-width: 2; stroke: rgb(232, 61, 78); stroke-opacity: 1;"/></g></g></g><g id="shape-76b82735-f439-8086-8006-42417483af80"><g class="fills" id="fills-76b82735-f439-8086-8006-42417483af80"><path d="M7.000,2.000L7.000,6.172C7.000,6.702,7.211,7.211,7.586,7.586L12.000,12.000L16.414,7.586C16.789,7.211,17.000,6.702,17.000,6.172L17.000,2.000" fill="none" stroke-linejoin="round" stroke-linecap="round" style="fill: none;"/></g><g fill="none" stroke-linejoin="round" stroke-linecap="round" id="strokes-19968219-39f7-800a-8006-4242564476fa-76b82735-f439-8086-8006-42417483af80" class="strokes"><g class="stroke-shape"><path d="M7.000,2.000L7.000,6.172C7.000,6.702,7.211,7.211,7.586,7.586L12.000,12.000L16.414,7.586C16.789,7.211,17.000,6.702,17.000,6.172L17.000,2.000" style="fill: none; stroke-width: 2; stroke: rgb(232, 61, 78); stroke-opacity: 1;"/></g></g></g></g></svg>