<svg width="24" xmlns="http://www.w3.org/2000/svg" height="24" id="screenshot-76b82735-f439-8086-8006-4241747bab9d" viewBox="0 0 24 24" xmlns:xlink="http://www.w3.org/1999/xlink" fill="none" version="1.1"><g id="shape-76b82735-f439-8086-8006-4241747bab9d" width="24" class="lucide lucide-wrench-icon lucide-wrench" height="24" rx="0" ry="0" style="fill: rgb(0, 0, 0);"><g id="shape-76b82735-f439-8086-8006-4241747bab9f" style="display: none;"><g class="fills" id="fills-76b82735-f439-8086-8006-4241747bab9f"><rect width="24" height="24" x="0" stroke-linejoin="round" transform="matrix(1.000000, 0.000000, 0.000000, 1.000000, 0.000000, 0.000000)" style="fill: none;" ry="0" fill="none" stroke-linecap="round" rx="0" y="0"/></g><g fill="none" stroke-linejoin="round" stroke-linecap="round" id="strokes-55c1500b-ffb3-8076-8006-424296d89f2d-76b82735-f439-8086-8006-4241747bab9f" class="strokes"><g class="stroke-shape"><rect rx="0" ry="0" x="0" y="0" transform="matrix(1.000000, 0.000000, 0.000000, 1.000000, 0.000000, 0.000000)" width="24" height="24" style="fill: none; stroke-width: 2; stroke: rgb(0, 0, 0); stroke-opacity: 1;"/></g></g></g><g id="shape-76b82735-f439-8086-8006-4241747bc6d9"><g class="fills" id="fills-76b82735-f439-8086-8006-4241747bc6d9"><path d="M14.700,6.300C14.319,6.689,14.319,7.311,14.700,7.700L16.300,9.300C16.689,9.681,17.311,9.681,17.700,9.300L21.470,5.530C22.500,7.805,22.012,10.480,20.246,12.246C18.480,14.012,15.805,14.500,13.530,13.470L6.620,20.380C5.792,21.208,4.448,21.208,3.620,20.380C2.792,19.552,2.792,18.208,3.620,17.380L10.530,10.470C9.500,8.195,9.988,5.520,11.754,3.754C13.520,1.988,16.195,1.500,18.470,2.530L14.700,6.300ZZ" fill="none" stroke-linejoin="round" stroke-linecap="round" style="fill: none;"/></g><g fill="none" stroke-linejoin="round" stroke-linecap="round" id="strokes-55c1500b-ffb3-8076-8006-424296d9245b-76b82735-f439-8086-8006-4241747bc6d9" class="strokes"><g class="stroke-shape"><path d="M14.700,6.300C14.319,6.689,14.319,7.311,14.700,7.700L16.300,9.300C16.689,9.681,17.311,9.681,17.700,9.300L21.470,5.530C22.500,7.805,22.012,10.480,20.246,12.246C18.480,14.012,15.805,14.500,13.530,13.470L6.620,20.380C5.792,21.208,4.448,21.208,3.620,20.380C2.792,19.552,2.792,18.208,3.620,17.380L10.530,10.470C9.500,8.195,9.988,5.520,11.754,3.754C13.520,1.988,16.195,1.500,18.470,2.530L14.700,6.300ZZ" style="fill: none; stroke-width: 2; stroke: rgb(232, 61, 78); stroke-opacity: 1;"/></g></g></g></g></svg>