<svg width="248" xmlns="http://www.w3.org/2000/svg" height="248" id="screenshot-2aac0af9-20c4-80c4-8006-40987874c344" viewBox="-8 0 248 248" xmlns:xlink="http://www.w3.org/1999/xlink" fill="none" version="1.1"><style>/* cyrillic-ext */
@font-face {
  font-family: 'Montserrat';
  font-style: normal;
  font-weight: 600;
  font-display: block;
  src: url(https://design.penpot.app/internal/gfonts/font/montserrat/v30/JTUHjIg1_i6t8kCHKm4532VJOt5-QNFgpCu173w0aXpsog.woff2) format('woff2');
  unicode-range: U+0460-052F, U+1C80-1C8A, U+20B4, U+2DE0-2DFF, U+A640-A69F, U+FE2E-FE2F;
}
/* cyrillic */
@font-face {
  font-family: 'Montserrat';
  font-style: normal;
  font-weight: 600;
  font-display: block;
  src: url(https://design.penpot.app/internal/gfonts/font/montserrat/v30/JTUHjIg1_i6t8kCHKm4532VJOt5-QNFgpCu173w9aXpsog.woff2) format('woff2');
  unicode-range: U+0301, U+0400-045F, U+0490-0491, U+04B0-04B1, U+2116;
}
/* vietnamese */
@font-face {
  font-family: 'Montserrat';
  font-style: normal;
  font-weight: 600;
  font-display: block;
  src: url(https://design.penpot.app/internal/gfonts/font/montserrat/v30/JTUHjIg1_i6t8kCHKm4532VJOt5-QNFgpCu173w2aXpsog.woff2) format('woff2');
  unicode-range: U+0102-0103, U+0110-0111, U+0128-0129, U+0168-0169, U+01A0-01A1, U+01AF-01B0, U+0300-0301, U+0303-0304, U+0308-0309, U+0323, U+0329, U+1EA0-1EF9, U+20AB;
}
/* latin-ext */
@font-face {
  font-family: 'Montserrat';
  font-style: normal;
  font-weight: 600;
  font-display: block;
  src: url(https://design.penpot.app/internal/gfonts/font/montserrat/v30/JTUHjIg1_i6t8kCHKm4532VJOt5-QNFgpCu173w3aXpsog.woff2) format('woff2');
  unicode-range: U+0100-02BA, U+02BD-02C5, U+02C7-02CC, U+02CE-02D7, U+02DD-02FF, U+0304, U+0308, U+0329, U+1D00-1DBF, U+1E00-1E9F, U+1EF2-1EFF, U+2020, U+20A0-20AB, U+20AD-20C0, U+2113, U+2C60-2C7F, U+A720-A7FF;
}
/* latin */
@font-face {
  font-family: 'Montserrat';
  font-style: normal;
  font-weight: 600;
  font-display: block;
  src: url(https://design.penpot.app/internal/gfonts/font/montserrat/v30/JTUHjIg1_i6t8kCHKm4532VJOt5-QNFgpCu173w5aXo.woff2) format('woff2');
  unicode-range: U+0000-00FF, U+0131, U+0152-0153, U+02BB-02BC, U+02C6, U+02DA, U+02DC, U+0304, U+0308, U+0329, U+2000-206F, U+20AC, U+2122, U+2191, U+2193, U+2212, U+2215, U+FEFF, U+FFFD;
}
</style><g id="shape-2aac0af9-20c4-80c4-8006-40987874c344" rx="0" ry="0"><g id="shape-2aac0af9-20c4-80c4-8006-40987874c345" rx="0" ry="0"><g clip-path="url(#render-362-2aac0af9-20c4-80c4-8006-40987874c34c-clip)"><g mask="url(#render-362-2aac0af9-20c4-80c4-8006-40987874c34c-mask)"><defs><filter id="render-362-2aac0af9-20c4-80c4-8006-40987874c34c-filter"><feFlood flood-color="white" result="FloodResult"/><feComposite in="FloodResult" in2="SourceGraphic" operator="in" result="comp"/></filter><clipPath id="render-362-2aac0af9-20c4-80c4-8006-40987874c34c-clip" class="mask-clip-path"><polyline points="0,0 240,0 240,240 0,240"/></clipPath><mask width="240" maskUnits="userSpaceOnUse" height="240" class="mask-shape" x="0" id="render-362-2aac0af9-20c4-80c4-8006-40987874c34c-mask" data-old-y="0" data-old-width="240" data-old-x="0" y="0" data-old-height="240"><g filter="url(#render-362-2aac0af9-20c4-80c4-8006-40987874c34c-filter)"><g id="shape-2aac0af9-20c4-80c4-8006-40987874c34c"><g class="fills" id="fills-2aac0af9-20c4-80c4-8006-40987874c34c"><rect rx="16" ry="16" x="0" y="0" transform="matrix(1.000000, 0.000000, 0.000000, 1.000000, 0.000000, 0.000000)" width="240" height="240" style="fill: rgb(0, 0, 0); fill-opacity: 1;"/></g></g></g></mask></defs><g id="shape-2aac0af9-20c4-80c4-8006-40987874c34d"><defs><pattern patternUnits="userSpaceOnUse" x="0" y="-11" width="240" height="328" patternTransform="matrix(1.000000, 0.000000, 0.000000, 1.000000, 0.000000, 0.000000)" id="fill-0-render-364"><g><image id="fill-image-render-364-0" href="https://design.penpot.app/assets/by-file-media-id/bf1495cc-f302-805a-8006-4378c11f84ef" preserveAspectRatio="xMidYMid slice" width="240" height="328" opacity="1"/></g></pattern></defs><g class="fills" id="fills-2aac0af9-20c4-80c4-8006-40987874c34d"><path d="M0.000,-11.000L240.000,-11.000L240.000,317.000L0.000,317.000L0.000,-11.000Z" fill="url(#fill-0-render-364)"/></g></g></g></g></g><g id="shape-2aac0af9-20c4-80c4-8006-40987874c346" rx="0" ry="0"><g id="shape-2aac0af9-20c4-80c4-8006-40987874c34e"><defs><linearGradient id="fill-color-gradient-render-366-0" x1="0.5" y1="0" x2="0.5" y2="1" gradientTransform=""><stop offset="0.68" stop-color="#ffffff" stop-opacity="0"/><stop offset="0.85" stop-color="#35213d" stop-opacity="0.6"/></linearGradient><pattern patternUnits="userSpaceOnUse" x="0" y="0" width="240" height="240" id="fill-0-render-366"><g><rect width="240" height="240" style="fill: url(&quot;#fill-color-gradient-render-366-0&quot;);"/></g></pattern></defs><g class="fills" id="fills-2aac0af9-20c4-80c4-8006-40987874c34e"><rect rx="16" ry="16" x="0" y="0" transform="matrix(1.000000, 0.000000, 0.000000, 1.000000, 0.000000, 0.000000)" width="240" height="240" fill="url(#fill-0-render-366)"/></g><g id="strokes-241f265f-ace1-8057-8006-444495ef970a-2aac0af9-20c4-80c4-8006-40987874c34e" class="strokes"><g class="inner-stroke-shape" transform="matrix(1.000000, 0.000000, 0.000000, 1.000000, 0.000000, 0.000000)"><defs><clipPath id="inner-stroke-render-366-2aac0af9-20c4-80c4-8006-40987874c34e-0"><use href="#stroke-shape-render-366-2aac0af9-20c4-80c4-8006-40987874c34e-0"/></clipPath><rect rx="16" ry="16" x="0" y="0" width="240" height="240" id="stroke-shape-render-366-2aac0af9-20c4-80c4-8006-40987874c34e-0" style="fill: none; stroke-width: 4; stroke: rgb(249, 215, 76); stroke-opacity: 1;"/></defs><use href="#stroke-shape-render-366-2aac0af9-20c4-80c4-8006-40987874c34e-0" clip-path="url('#inner-stroke-render-366-2aac0af9-20c4-80c4-8006-40987874c34e-0')"/></g></g></g></g><g id="shape-2aac0af9-20c4-80c4-8006-40987874c348"><g class="fills" id="fills-2aac0af9-20c4-80c4-8006-40987874c348"><path d="M14.000,21.673C14.000,17.438,17.438,14.000,21.673,14.000L217.327,14.000C221.562,14.000,225.000,17.438,225.000,21.673L225.000,44.528L225.000,52.170L225.000,217.327C225.000,221.562,221.562,225.000,217.327,225.000L21.673,225.000C17.438,225.000,14.000,221.562,14.000,217.327L14.000,21.673Z" style="fill: rgb(177, 178, 181); fill-opacity: 0;"/></g><g id="strokes-241f265f-ace1-8057-8006-444495effa23-2aac0af9-20c4-80c4-8006-40987874c348" class="strokes"><g class="stroke-shape"><path d="M14.000,21.673C14.000,17.438,17.438,14.000,21.673,14.000L217.327,14.000C221.562,14.000,225.000,17.438,225.000,21.673L225.000,44.528L225.000,52.170L225.000,217.327C225.000,221.562,221.562,225.000,217.327,225.000L21.673,225.000C17.438,225.000,14.000,221.562,14.000,217.327L14.000,21.673Z" style="fill: none; stroke-width: 1; stroke: rgb(255, 255, 255); stroke-opacity: 1;"/></g></g></g><g id="shape-2aac0af9-20c4-80c4-8006-40987874c347"><defs><filter id="filter-render-368" x="-0.2796610169491509" y="-1.1785714285713902" width="1.5593220338983018" height="3.3571428571427804" filterUnits="objectBoundingBox" color-interpolation-filters="sRGB"><feFlood flood-opacity="0" result="BackgroundImageFix"/><feColorMatrix in="SourceAlpha" type="matrix" values="0 0 0 0 0 0 0 0 0 0 0 0 0 0 0 0 0 0 127 0"/><feMorphology radius="1" operator="dilate" in="SourceAlpha" result="filter_3f059453-600b-80dd-8006-3e067a9c5ff6"/><feOffset dx="0" dy="0"/><feGaussianBlur stdDeviation="2.5"/><feColorMatrix type="matrix" values="0 0 0 0 0 0 0 0 0 0 0 0 0 0 0 0 0 0 0.4 0"/><feBlend mode="normal" in2="BackgroundImageFix" result="filter_3f059453-600b-80dd-8006-3e067a9c5ff6"/><feBlend mode="normal" in="SourceGraphic" in2="filter_3f059453-600b-80dd-8006-3e067a9c5ff6" result="shape"/></filter><filter id="filter-shadow-render-368" x="-0.2796610169491509" y="-1.1785714285713902" width="1.5593220338983018" height="3.3571428571427804" filterUnits="objectBoundingBox" color-interpolation-filters="sRGB"><feFlood flood-opacity="0" result="BackgroundImageFix"/><feColorMatrix in="SourceAlpha" type="matrix" values="0 0 0 0 0 0 0 0 0 0 0 0 0 0 0 0 0 0 127 0"/><feMorphology radius="1" operator="dilate" in="SourceAlpha" result="filter_3f059453-600b-80dd-8006-3e067a9c5ff6"/><feOffset dx="0" dy="0"/><feGaussianBlur stdDeviation="2.5"/><feColorMatrix type="matrix" values="0 0 0 0 0 0 0 0 0 0 0 0 0 0 0 0 0 0 0.4 0"/><feBlend mode="normal" in2="BackgroundImageFix" result="filter_3f059453-600b-80dd-8006-3e067a9c5ff6"/><feBlend mode="normal" in="SourceGraphic" in2="filter_3f059453-600b-80dd-8006-3e067a9c5ff6" result="shape"/></filter></defs><g width="118.00000000000068" height="28.00000000000091" class="text-container" x="24.999999999999773" transform="matrix(1.000000, 0.000000, 0.000000, 1.000000, 0.000000, 0.000000)" ry="0" rx="0" filter="url(#filter-render-368)" y="186.99999999999955"><defs><pattern patternUnits="objectBoundingBox" width="81.3125" height="29" id="fill-0-render-368-0"><g><rect width="81.3125" height="29" style="fill: rgb(255, 255, 255); fill-opacity: 1;"/></g></pattern></defs><g class="fills" id="fills-2aac0af9-20c4-80c4-8006-40987874c347"><text x="24.999999999999773" y="214.99999999999955" dominant-baseline="ideographic" textLength="81.3125" lengthAdjust="spacingAndGlyphs" style="text-transform: none; font-family: Montserrat; letter-spacing: normal; font-style: normal; font-weight: 600; white-space: pre; font-size: 24px; text-decoration: none solid rgb(255, 255, 255); direction: ltr; fill: rgb(255, 255, 255); fill-opacity: 1;">FREYA</text></g><g id="strokes-241f265f-ace1-8057-8006-444495f05e2d-2aac0af9-20c4-80c4-8006-40987874c347" class="strokes"><g class="stroke-shape"><defs><linearGradient id="stroke-color-gradient-render-368-0-0" x1="0.2054348268370714" y1="0.05393244711201098" x2="0.2126812036486656" y2="0.9752807617187526" gradientTransform=""><stop offset="0" stop-color="#fff7d7" stop-opacity="1"/><stop offset="1" stop-color="#f2ebff" stop-opacity="1"/></linearGradient></defs><text x="24.999999999999773" y="214.99999999999955" dominant-baseline="ideographic" textLength="81.3125" lengthAdjust="spacingAndGlyphs" style="text-transform: none; font-family: Montserrat; letter-spacing: normal; font-style: normal; font-weight: 600; white-space: pre; font-size: 24px; text-decoration: none solid rgb(255, 255, 255); direction: ltr; fill: none; stroke-width: 0; stroke: url(&quot;#stroke-color-gradient-render-368-0-0&quot;);">FREYA</text></g></g></g></g><g id="shape-2aac0af9-20c4-80c4-8006-40987874c349" rx="0" ry="0" style="fill: rgb(0, 0, 0);"><g id="shape-2aac0af9-20c4-80c4-8006-40987874c34f" style="display: none;"><g class="fills" id="fills-2aac0af9-20c4-80c4-8006-40987874c34f"><rect width="46.99999999999977" height="17.99999999999909" x="96" transform="matrix(1.000000, 0.000000, 0.000000, 1.000000, 0.000000, 0.000000)" style="fill: none;" ry="0" fill="none" rx="0" y="5"/></g></g><g id="shape-2aac0af9-20c4-80c4-8006-40987874c350"><defs style="fill: rgb(0, 0, 0);"><g id="shape-2aac0af9-20c4-80c4-8006-40987874c357"><style>#shape-2aac0af9-20c4-80c4-8006-40987874c349{ .cls-1 {
        fill: #bda44a;
      }

      .cls-1, .cls-2, .cls-3 {
        stroke-width: 0px;
      }

      .cls-2 {
        fill: #f9d74c;
      }

      .cls-3 {
        fill: #706a54;
      } }</style></g></defs></g><g id="shape-2aac0af9-20c4-80c4-8006-40987874c351"><g class="fills" id="fills-2aac0af9-20c4-80c4-8006-40987874c351"><rect width="46.99999999999977" height="17.99999999999909" class="cls-3" x="96" transform="matrix(1.000000, 0.000000, 0.000000, 1.000000, 0.000000, 0.000000)" style="fill: rgb(87, 80, 54); fill-opacity: 1;" ry="8.999999999999545" rx="8.999999999999545" y="5"/></g></g><g id="shape-2aac0af9-20c4-80c4-8006-40987874c352"><g class="fills" id="fills-2aac0af9-20c4-80c4-8006-40987874c352"><path d="M126.963,7.950C127.846,7.950,128.728,7.923,129.610,7.956C131.297,8.019,132.883,9.407,133.043,10.959C133.229,12.770,132.552,14.537,130.588,15.108C130.071,15.258,129.954,15.431,130.267,15.945C130.941,17.052,131.560,18.195,132.198,19.327C132.509,19.878,132.415,20.073,131.801,20.070C129.360,20.059,129.995,20.314,128.838,18.259C128.058,16.875,127.321,15.466,126.554,14.073C126.259,13.537,126.386,13.311,126.999,13.262C127.742,13.204,128.498,13.190,129.219,13.019C129.940,12.848,130.279,12.225,130.241,11.467C130.205,10.748,129.757,10.125,129.033,10.057C127.953,9.956,126.861,9.978,125.774,9.962C124.927,9.949,123.994,9.275,123.732,8.435C123.591,7.984,123.903,7.946,124.205,7.943C125.125,7.938,126.045,7.941,126.963,7.950ZC126.964,7.943,126.964,7.946,126.963,7.950ZZ" class="cls-2"/></g></g><g id="shape-2aac0af9-20c4-80c4-8006-40987874c353"><g class="fills" id="fills-2aac0af9-20c4-80c4-8006-40987874c353"><path d="M119.991,7.943C120.779,7.943,121.567,7.929,122.353,7.949C122.871,7.962,122.930,8.177,122.755,8.664C122.486,9.550,122.472,9.950,121.507,9.950C120.627,9.950,119.309,9.972,118.807,9.972C118.408,9.972,117.078,9.841,117.065,11.208C117.059,11.867,117.504,12.597,118.210,12.670C118.704,12.761,120.058,12.788,120.579,12.788C120.123,13.666,119.915,14.483,119.027,14.736C118.139,14.988,117.148,14.799,116.341,14.194C115.396,13.484,114.778,12.384,114.764,11.224C114.756,10.497,114.985,9.746,115.518,9.052C116.591,7.608,118.453,7.976,119.991,7.943ZZ" class="cls-2"/></g></g><g id="shape-2aac0af9-20c4-80c4-8006-40987874c354"><g class="fills" id="fills-2aac0af9-20c4-80c4-8006-40987874c354"><path d="M119.414,19.861C118.664,19.861,116.536,19.868,115.787,19.859C115.380,19.854,115.212,19.699,115.487,19.281C115.613,19.088,115.892,18.514,116.020,18.322C116.213,18.033,116.420,17.961,116.980,17.957C118.151,17.950,118.949,17.941,120.293,17.930C121.334,17.930,122.219,16.361,121.620,15.289C121.483,15.045,121.208,14.726,121.299,14.533C121.461,14.189,121.916,13.541,122.126,13.264C122.187,13.185,122.296,13.168,122.375,13.228C122.599,13.399,123.049,13.838,123.493,14.829C123.850,15.625,123.753,16.468,123.569,17.358C123.439,17.988,123.140,18.591,122.653,18.957C121.452,19.862,119.672,19.860,119.414,19.861ZZ" class="cls-1"/></g></g><g id="shape-2aac0af9-20c4-80c4-8006-40987874c355"><g class="fills" id="fills-2aac0af9-20c4-80c4-8006-40987874c355"><path d="M111.153,7.943C111.941,7.943,112.729,7.929,113.516,7.949C114.033,7.962,114.093,8.177,113.917,8.664C113.649,9.550,113.634,9.950,112.669,9.950C111.789,9.950,110.471,9.972,109.970,9.972C109.571,9.972,108.241,9.841,108.227,11.208C108.221,11.867,108.667,12.597,109.372,12.670C109.866,12.761,111.221,12.788,111.741,12.788C111.285,13.666,111.078,14.483,110.189,14.736C109.301,14.988,108.310,14.799,107.503,14.194C106.558,13.484,105.940,12.384,105.927,11.224C105.919,10.497,106.148,9.746,106.681,9.052C107.754,7.608,109.616,7.976,111.153,7.943ZZ" class="cls-2"/></g></g><g id="shape-2aac0af9-20c4-80c4-8006-40987874c356"><g class="fills" id="fills-2aac0af9-20c4-80c4-8006-40987874c356"><path d="M110.577,19.861C109.828,19.861,107.700,19.868,106.950,19.859C106.543,19.854,106.375,19.699,106.650,19.281C106.776,19.088,107.055,18.514,107.183,18.322C107.376,18.033,107.583,17.961,108.144,17.957C109.315,17.950,110.113,17.941,111.456,17.930C112.498,17.930,113.383,16.361,112.783,15.289C112.647,15.045,112.371,14.726,112.463,14.533C112.624,14.189,113.079,13.541,113.289,13.264C113.350,13.185,113.459,13.168,113.538,13.228C113.762,13.399,114.212,13.838,114.656,14.829C115.013,15.625,114.917,16.468,114.733,17.358C114.602,17.988,114.303,18.591,113.816,18.957C112.615,19.862,110.835,19.860,110.577,19.861ZZ" class="cls-1"/></g></g></g><g id="shape-2aac0af9-20c4-80c4-8006-409981f26183"><defs><pattern patternUnits="userSpaceOnUse" x="180" y="180" width="35" height="35" id="fill-0-render-379"><g><image id="fill-image-render-379-0" href="https://design.penpot.app/assets/by-file-media-id/3268f47a-7993-81be-8006-4098b50a3fba" preserveAspectRatio="none" width="35" height="35" opacity="1"/></g></pattern></defs><g class="fills" id="fills-2aac0af9-20c4-80c4-8006-409981f26183"><rect rx="17.5" ry="17.5" x="180" y="180" transform="matrix(1.000000, 0.000000, 0.000000, 1.000000, 0.000000, 0.000000)" width="35" height="35" fill="url(#fill-0-render-379)"/></g><g id="strokes-241f265f-ace1-8057-8006-444495f20f29-2aac0af9-20c4-80c4-8006-409981f26183" class="strokes"><g class="inner-stroke-shape" transform="matrix(1.000000, 0.000000, 0.000000, 1.000000, 0.000000, 0.000000)"><defs><clipPath id="inner-stroke-render-379-2aac0af9-20c4-80c4-8006-409981f26183-0"><use href="#stroke-shape-render-379-2aac0af9-20c4-80c4-8006-409981f26183-0"/></clipPath><rect rx="17.5" ry="17.5" x="180" y="180" width="35" height="35" id="stroke-shape-render-379-2aac0af9-20c4-80c4-8006-409981f26183-0" style="fill: none; stroke-width: 2; stroke: rgb(175, 213, 134); stroke-opacity: 1;"/></defs><use href="#stroke-shape-render-379-2aac0af9-20c4-80c4-8006-409981f26183-0" clip-path="url('#inner-stroke-render-379-2aac0af9-20c4-80c4-8006-409981f26183-0')"/></g></g></g><g id="shape-2aac0af9-20c4-80c4-8006-40987874c34b"><g class="fills" id="fills-2aac0af9-20c4-80c4-8006-40987874c34b"><ellipse cx="14" cy="202" rx="4" ry="4" transform="matrix(1.000000, 0.000000, 0.000000, 1.000000, 0.000000, 0.000000)" style="fill: rgb(255, 255, 255); fill-opacity: 1;"/></g></g></g></svg>